<svg width="24" height="24" viewBox="0 0 24 24" fill="none" xmlns="http://www.w3.org/2000/svg">
<g clip-path="url(#clip0_406_138)">
<path d="M12.0053 24.1057L11.7675 23.9955C9.1276 22.7737 6.99735 20.9992 5.60581 18.8635C2.26879 13.7433 2.15893 8.4543 2.04238 2.85524C2.03309 2.43068 2.02416 2.00556 2.01376 1.57895L2 1.0001H22L21.9861 1.57914C21.9755 2.00797 21.9662 2.43588 21.9578 2.86323C21.8403 8.45914 21.7295 13.7459 18.3934 18.8635C17.0053 20.9955 14.8783 22.7697 12.2432 23.9947L12.0053 24.1057" fill="white"/>
<path d="M11.9596 7.89457L4.12322 14.0636C2.86421 10.1626 2.89897 6.08423 2.79785 1.93117H21.0801C20.979 6.09445 21.026 10.1564 19.7577 14.0662L11.9596 7.89457" fill="#FCCE28"/>
<path d="M18.3051 17.3923C18.112 17.7355 17.9053 18.0768 17.6837 18.4173C16.2901 20.5569 14.2199 22.14 11.9434 23.1985C9.65789 22.14 7.58843 20.5569 6.19392 18.4173C5.97662 18.0848 5.58569 17.4163 5.58569 17.4163L11.9595 12.3296L18.3051 17.3923" fill="#FCCE28"/>
<path d="M6.59496 5.0629C5.66925 4.86624 4.84522 4.17772 5.04393 3.30424C5.0456 3.29588 5.00842 3.07858 4.92831 3.04865C4.92217 3.04605 4.90897 3.02132 4.89522 3.01798C4.86009 3.00868 4.83072 2.99325 4.80116 2.97188C4.79056 2.96426 4.74744 2.94957 4.74744 2.93414C4.73071 2.97039 4.73424 3.00348 4.70971 3.03508C4.70097 3.04679 4.68777 3.06501 4.67458 3.07207C4.65785 3.08081 4.65654 3.09624 4.64372 3.10757C4.57438 3.17747 4.61119 3.28286 4.62215 3.36298C4.62531 3.38324 4.63368 3.40778 4.60896 3.41243C4.57959 3.41763 4.60319 3.40443 4.56899 3.38324C4.561 3.37822 4.5491 3.36521 4.54036 3.36094C4.52586 3.35424 4.46824 3.34625 4.45857 3.33231C4.44798 3.31707 4.45244 3.31205 4.43887 3.29959C4.40634 3.27097 4.40374 3.21353 4.38032 3.15442C4.37586 3.14382 4.36675 3.09214 4.36675 3.08081C4.36675 3.02132 4.21544 2.92652 4.27436 2.97522C4.29407 2.99195 4.27083 2.95124 4.19034 2.93117C4.13904 2.91834 4.07974 2.92113 4.02249 2.92838C4.01059 2.93005 3.99962 2.94009 3.99089 2.94622C3.93252 2.99195 3.87787 3.04623 3.80128 3.04958C3.81411 3.04158 3.82061 3.05683 3.82638 3.06371C3.863 3.11073 3.8366 3.16873 3.85816 3.22059C3.87972 3.27134 3.91672 3.31037 3.96003 3.34513C4.00241 3.37822 4.07583 3.33473 4.10781 3.39216C4.10781 3.3903 4.17714 3.40834 4.10929 3.47618C3.98475 3.60184 3.84627 3.50016 3.74329 3.73326C3.89943 3.66597 3.91672 3.90391 3.98308 3.91283C4.28142 3.95354 4.50876 4.00615 4.67234 4.30877C4.77272 4.49372 4.49333 4.50246 4.74577 4.54559C4.87421 4.56771 4.95991 4.63221 5.02497 4.72311C5.09282 4.81865 5.1023 4.94673 5.17498 5.03595C5.22814 5.09971 5.24803 5.11235 5.31179 5.1657C5.34079 5.19005 5.43224 5.21366 5.467 5.2224C5.50121 5.23169 5.52203 5.24879 5.55456 5.26087C5.58987 5.27351 5.62612 5.28578 5.65568 5.30976C5.68077 5.33058 5.74416 5.35233 5.75866 5.38133C5.7845 5.4317 5.7633 5.48375 5.79119 5.5345C5.79937 5.54862 5.83859 5.53636 5.85532 5.54175C5.87056 5.54732 5.90588 5.549 5.91554 5.54732C5.97633 5.53338 5.99083 5.52948 6.036 5.52409C6.10515 5.5161 6.09716 5.53784 6.18657 5.53338C6.20534 5.53338 6.21278 5.54732 6.2388 5.54732C6.25609 5.54732 6.28583 5.56573 6.29104 5.55011C6.31799 5.46516 6.36242 5.38356 6.41242 5.30065C6.46224 5.21793 6.45815 5.20994 6.52153 5.1235C6.5141 5.12592 6.60295 5.06365 6.59496 5.0629" fill="#C41B31"/>
<path d="M4.28494 5.17021C4.55615 5.31613 4.51934 5.67713 4.76378 5.79368C5.19875 6.00057 5.71756 6.14258 6.17986 5.91562C6.07707 6.2372 6.19083 6.50636 6.14603 6.54261C6.00085 6.65916 5.55919 6.52049 5.27646 6.40821C5.08183 6.33088 4.92383 6.62031 4.70932 6.59484C4.71973 6.56993 4.74445 6.49539 4.72995 6.44966C4.69612 6.3452 4.66879 6.31453 4.49499 6.33497C4.38253 6.34724 4.42919 6.43981 4.26115 6.52272C4.19478 6.48313 4.05258 6.4387 4.03177 6.56473C4.0221 6.62403 3.90387 6.36007 3.92767 6.31601C4.03753 6.1186 4.06002 6.0725 4.05202 6.02956C4.0392 5.96469 3.80089 5.87677 3.76966 5.9316C3.69587 6.06116 3.47671 5.51187 4.12285 5.54719C3.94904 5.43566 3.96894 5.41614 4.00983 5.2836C4.01467 5.26539 3.9496 5.19642 3.90518 5.24401C3.89068 5.19271 3.92525 5.13694 3.96578 5.13211C4.07192 5.11724 4.17582 5.11129 4.28494 5.17021" fill="#C41B31"/>
<path d="M5.57031 3.83928C5.96197 3.92944 6.54844 3.42327 6.8888 4.01959C6.63748 3.92851 5.89431 4.3263 5.57031 3.83928Z" fill="#C41B31"/>
<path d="M8.84938 4.70663C8.84138 5.21763 8.31235 5.76915 8.74156 6.25561C8.5659 6.25283 8.35808 6.19204 8.23614 6.09334C8.16811 6.03776 8.18298 6.33629 8.19227 6.398C8.20027 6.45024 7.86642 6.08311 7.74113 6.1729C7.38702 6.42737 7.23347 6.53258 6.70704 6.55191C6.56112 6.55693 6.4851 6.67497 6.44327 6.80249C6.32412 6.55879 6.41242 6.00448 6.48101 5.75818C6.66745 5.08267 7.34575 4.8821 7.89021 4.55941C8.28057 4.32686 8.44787 3.87274 8.42798 3.42996C8.70495 3.77627 8.85551 4.27203 8.84938 4.70663" fill="#C41B31"/>
<path d="M6.35828 10.4589C6.42445 10.4738 6.37501 10.529 6.34917 10.5457C6.29489 10.5814 6.25753 10.6256 6.22332 10.6797C6.1973 10.7201 6.1789 10.7632 6.18894 10.813C6.19563 10.8496 6.20808 10.882 6.22165 10.9151C6.23039 10.9357 6.24916 10.9472 6.26459 10.964C6.27128 10.9705 6.29489 11.0009 6.29545 11.0032C6.28095 10.9517 6.35345 10.8998 6.37073 10.9095C6.70756 11.1056 6.72744 10.7087 6.92932 10.5745C7.01501 10.5167 7.20889 10.5831 7.1587 10.7585C7.3602 10.6515 7.4195 10.3803 7.57657 10.2106C7.92306 9.83451 8.40916 9.58431 8.86978 9.38076C8.70323 9.20361 8.45767 9.05509 8.33275 8.8521C8.27123 8.75191 8.19799 8.55469 8.33424 8.59112C8.90101 8.73909 9.21906 8.39315 9.28189 7.94665C10.1213 8.05521 10.3399 7.26148 10.4532 6.66181C10.5082 6.37053 10.6671 6.34562 10.4929 5.84968C10.421 5.64223 10.8654 5.57401 10.7898 5.21599C10.7688 5.11729 10.6467 5.01765 10.5744 5.00594C10.6429 5.19908 10.3199 5.24759 10.2846 5.32641C10.2299 5.45021 10.1502 5.54891 10.1394 5.67903C9.86594 5.30057 10.0877 4.84459 10.344 4.49011C10.719 3.97353 11.4962 4.24493 11.8233 4.57803C11.8291 4.41092 11.6999 4.19827 11.5928 4.09585C11.899 4.05681 12.231 4.24307 12.6483 4.02205C12.8894 3.89379 13.1325 3.7843 13.2455 3.49971C12.7332 3.56998 12.0388 3.17553 11.5774 3.09522C10.7169 2.94614 10.1394 3.53298 9.83118 4.23303C9.52465 4.93215 9.72132 5.4543 10.0541 5.97664C10.1377 6.10843 9.7585 6.02162 9.60923 6.09932C9.4635 6.17461 9.4042 6.35417 9.43729 6.51292C9.62057 6.31606 10.1068 6.43745 10.1509 6.77464C10.2108 7.22988 9.75199 7.89219 9.30865 7.69329C8.83427 7.48045 8.56548 6.98023 8.40822 6.417C8.00262 6.76628 7.25295 6.4776 6.9046 6.81888C6.57353 7.14326 7.4208 7.36316 7.75075 7.51596C7.87213 7.57302 7.99389 7.69719 7.97363 7.85074C7.45686 7.54681 6.8347 7.89145 6.865 8.44371C6.88824 8.85601 7.3931 9.11271 7.81395 9.14766C7.98905 9.16179 8.09445 9.35716 7.88142 9.49025C7.50798 9.72372 7.0916 9.98415 6.68915 9.56182C6.62168 9.49136 6.38077 9.53579 6.333 9.66387C6.30958 9.72595 6.30214 9.82187 6.31162 9.88526C6.33337 9.84678 6.35921 9.79231 6.39323 9.79678C6.43282 9.80217 6.48096 9.84399 6.47576 9.87336C6.44118 10.0803 6.16923 9.94641 6.08484 10.1072C6.08317 10.1107 6.07852 10.1137 6.07648 10.1176C6.07108 10.1312 6.06402 10.1423 6.05807 10.1544C6.00305 10.2637 5.92739 10.3323 6.06272 10.4176C6.05937 10.3976 6.1302 10.5048 6.1289 10.5236C6.1354 10.4245 6.23875 10.426 6.23875 10.426L6.29861 10.4329L6.35828 10.4589" fill="#C41B31"/>
<path d="M4.60897 8.51516C4.5558 8.49824 4.5004 8.51888 4.44761 8.54249C4.41378 8.55773 4.37326 8.54174 4.35263 8.57632C4.34036 8.59658 4.33292 8.61944 4.33943 8.64342C4.34296 8.65569 4.34816 8.6793 4.35876 8.68692C4.28794 8.68116 4.22158 8.6332 4.16749 8.5845C4.14964 8.56851 4.13904 8.55048 4.12194 8.53375C4.11135 8.52204 4.11265 8.5014 4.10521 8.48542C4.09778 8.46906 4.10094 8.45029 4.10038 8.43319C4.09871 8.38486 4.09778 8.33411 4.11971 8.2895C4.12956 8.26868 4.13997 8.24767 4.15466 8.22945C4.16655 8.21458 4.17808 8.20306 4.19128 8.19023C4.22734 8.15584 4.26768 8.12889 4.31564 8.11476C4.38572 8.09376 4.46174 8.09989 4.52866 8.12926C4.58182 8.15213 4.64521 8.14971 4.70098 8.16495C4.73072 8.17332 4.78667 8.08725 4.74615 8.0774C4.56993 8.03409 4.57086 7.98632 4.50487 7.80842C4.47401 7.77348 4.43349 7.81344 4.41639 7.83166C4.41546 7.49 4.82106 7.46751 4.99077 7.60283C5.24172 7.80471 5.05323 8.19971 5.36143 8.30864C5.52204 8.36608 5.69212 8.40995 5.85793 8.3395C6.15609 8.21272 5.85886 7.91326 5.95459 7.6599C6.1494 7.14909 6.5801 7.12213 7.09314 7.61492C6.63419 7.76697 6.41949 8.37445 6.67118 8.77447C6.26595 8.61573 5.75588 8.88303 5.47147 9.06445C5.7358 8.79994 5.36403 8.58598 5.27034 8.6332L5.15789 8.71164C5.10379 8.78023 5.0997 8.85106 5.03297 8.91649C4.9956 8.95236 4.97441 8.95961 4.92571 8.97225C4.85823 8.98973 4.8166 8.98471 4.75674 8.94511C4.74578 8.93786 4.70971 8.95348 4.70265 8.96259C4.67012 9.00218 4.70191 9.02207 4.70098 9.03694C4.69429 9.03155 4.65265 8.99772 4.64633 8.99307C4.60822 8.96426 4.56416 8.93935 4.54037 8.90013C4.51676 8.86054 4.50041 8.76183 4.52717 8.707C4.55413 8.65383 4.60766 8.63729 4.64372 8.60011C4.67755 8.56647 4.63722 8.51386 4.59632 8.50754" fill="#C41B31"/>
<path d="M14.4606 4.00363C14.4971 4.02686 14.458 4.09304 14.4162 4.10475C14.3669 4.1185 14.2978 4.09768 14.2548 4.11441C14.0617 4.18524 14.0613 4.66055 14.0875 4.60552C14.1167 4.54492 14.2591 4.58433 14.3509 4.60236C14.5002 4.63266 14.6129 4.32985 14.7108 4.33822C14.9426 4.35941 15.1594 4.64772 15.2478 4.83732C15.2636 4.8719 15.1506 4.8732 15.143 4.98975C15.4588 4.96001 15.7258 5.16541 15.954 5.35278C16.0654 5.15965 16.1775 5.04012 16.3037 4.91372C15.8287 4.45161 14.8844 4.30848 15.0302 3.46623C15.0493 3.35804 14.9272 3.26287 14.8731 3.20989C14.8116 3.15115 14.6716 3.14762 14.5859 3.12755C14.6761 3.31399 14.5132 3.33239 14.5366 3.62851C14.5366 3.63799 14.5099 3.63167 14.4997 3.62758C14.443 3.60323 14.3946 3.5681 14.3405 3.53426C14.2917 3.50396 14.2459 3.51196 14.1918 3.51995C14.1589 3.52441 14.129 3.53947 14.1013 3.55936C14.0563 3.59152 14.0335 3.6326 14.0022 3.67833C13.9961 3.68632 13.99 3.69654 13.9831 3.70379C13.9729 3.7142 13.9528 3.74599 13.9513 3.76216C13.976 3.75956 14.0524 3.76551 14.0656 3.78577C14.0876 3.82053 14.0885 3.86012 14.1145 3.89321C14.147 3.93429 14.1744 3.93559 14.2218 3.9553C14.2957 3.98652 14.3617 4.00065 14.4426 3.99359" fill="#C41B31"/>
<path d="M15.689 3.66438C15.9853 3.64245 16.279 3.41493 16.6071 3.79989C16.5465 3.77071 16.476 3.76067 16.4392 3.79041C16.0763 4.08281 15.6356 3.98392 15.4034 3.62181C15.4979 3.60676 15.6124 3.67015 15.689 3.66438Z" fill="#C41B31"/>
<path d="M16.9716 4.74048C17.459 4.49418 17.9516 4.29565 18.1522 3.69152C18.1912 3.57367 18.2814 3.86737 18.287 3.88392C18.5448 4.62188 18.031 5.35446 18.1368 6.10711C17.9652 6.00227 17.7723 5.92996 17.584 5.9242C16.915 5.90487 16.7562 6.31195 16.7185 6.27385C16.535 6.08833 16.0082 5.92922 16.0463 5.96453C15.7338 5.67548 16.6361 4.91149 16.9716 4.74048" fill="#C41B31"/>
<path d="M15.6397 9.64943C15.7064 9.7526 15.6176 9.59088 15.6936 9.76636C16.0462 9.61858 16.4113 9.44979 16.8015 9.60798C16.6286 8.81481 17.2078 8.62242 17.2536 8.50363C17.327 8.31292 16.94 7.93427 16.6485 8.04004C16.2764 8.17332 16.4312 8.64305 16.3613 8.97132C16.3227 9.15312 16.0974 9.2864 15.9105 9.22171C15.6027 9.11576 15.4791 8.82894 15.4031 8.5068C15.352 8.29266 14.9352 8.26682 14.845 8.44229C14.5891 8.9401 14.9971 8.38485 14.9707 8.76239C14.9664 8.8267 14.6716 8.77838 14.6056 9.00237C14.5608 9.15535 14.7056 9.2574 14.8876 9.31112C14.9211 9.32042 14.8525 9.2351 14.8982 9.21632C14.9311 9.20368 15.0648 9.27506 15.049 9.28417C14.8735 9.39124 14.8287 9.63996 15.1423 9.74851C15.1445 9.74888 15.1194 9.65892 15.143 9.64107C15.388 9.45816 15.6434 9.65557 15.644 9.64943" fill="#C41B31"/>
<path d="M10.3351 14.6653C10.6284 14.8008 10.723 14.6553 11.1087 14.5928C11.1628 14.5841 11.3796 14.7257 11.4426 14.7975C11.0563 14.8585 10.5862 15.1951 10.3351 14.6653Z" fill="#C41B31"/>
<path d="M10.1783 14.9744C10.1601 14.9545 10.1348 14.9461 10.111 14.937C10.0872 14.9259 10.0612 14.9171 10.0337 14.9134C10.027 14.9119 9.97808 14.9008 9.97064 14.8982C9.96878 14.9153 9.99127 14.9603 9.97863 14.972C9.94778 15.0002 9.93681 14.9937 9.91208 15.0307C9.90298 15.0456 9.89331 15.0597 9.88959 15.0765C9.88272 15.1103 9.86766 15.1488 9.86376 15.1872C9.86246 15.2064 9.87045 15.2527 9.87473 15.2703C9.87751 15.2798 9.89796 15.3216 9.90391 15.3328C9.90391 15.3332 9.95075 15.3834 9.94834 15.3811C10.0028 15.436 9.958 15.404 10.0253 15.4703C10.0591 15.5023 10.0093 15.5586 9.97678 15.5492C9.74981 15.4835 9.7184 15.2207 9.5115 15.1397C9.36112 15.0817 9.14493 15.1986 9.12207 15.4276C9.17245 15.4127 9.22524 15.4326 9.23546 15.4744C9.29086 15.7053 9.62898 15.5677 9.63679 15.73C9.64293 15.8364 9.38398 15.7118 9.28156 15.7795C9.14605 15.8698 9.12802 16.1297 9.24718 16.2808C9.37023 16.1639 9.5234 16.3353 9.64292 16.25C9.72657 16.1903 9.7565 16.1053 9.84182 16.068C10.1017 15.9533 10.1783 16.1925 10.1207 16.4329C10.2608 16.3676 10.5911 16.2996 10.6668 16.2786C10.804 16.2412 10.8097 15.9261 10.9772 15.8096C10.7398 15.8085 10.4461 15.7053 10.3796 15.4733C10.3735 15.4486 10.3902 15.4203 10.3922 15.3921C10.3985 15.3038 10.3902 15.2185 10.3567 15.1371C10.3534 15.1289 10.345 15.1175 10.3381 15.1077C10.3292 15.0947 10.3212 15.0813 10.3119 15.067C10.2881 15.0344 10.2534 15.0196 10.2195 14.998C10.2047 14.9883 10.1861 14.9857 10.1753 14.9709" fill="#C41B31"/>
<path d="M8.43201 16.6111C8.53611 16.813 8.02362 16.4892 7.8316 16.7886C7.77008 16.8845 7.80298 17.1009 7.80298 17.2232C7.92101 17.1165 8.03775 17.3195 8.25765 17.1253C8.28182 17.147 8.3084 17.1604 8.27494 17.1946C8.1939 17.2765 8.14817 17.3786 8.19129 17.477C8.21806 17.5413 8.40078 17.6701 8.4019 17.6589C8.42049 17.5271 8.6456 17.6589 8.68073 17.3996C8.69616 17.2925 8.72739 17.1151 8.88204 17.1798C9.02332 17.2381 9.05232 17.3982 9.01942 17.5565C9.24452 17.4833 9.64046 17.2522 9.87653 17.4232C10.194 17.6525 10.7153 17.7471 11.0868 17.8623C10.8402 17.6913 10.7617 17.2442 10.803 16.9539C10.2182 17.0686 9.60421 17.0491 9.06198 16.7985C8.91383 16.7295 8.93372 16.5578 8.88892 16.4169C8.83818 16.2579 8.63816 16.1116 8.45693 16.125C8.35934 16.1323 8.1253 16.3371 8.16973 16.3472C8.15467 16.3436 8.15523 16.3773 8.14724 16.3914C8.19129 16.3639 8.24706 16.3914 8.26695 16.439C8.28145 16.4721 8.29502 16.5087 8.32327 16.5356C8.35617 16.568 8.4138 16.5756 8.43201 16.6111" fill="#C41B31"/>
<path d="M9.83393 19.8068C9.94732 19.668 10.0419 19.7418 10.091 19.7433C10.2098 19.7471 10.2018 19.9143 10.1897 20.0209C10.655 19.7959 11.0976 19.4752 11.6435 19.5925C11.326 19.2603 11.4379 18.5465 11.8874 18.4588C11.8883 18.4588 11.5978 18.4112 11.5669 18.3915C11.1764 18.1435 10.6989 17.9077 10.4364 18.4265C10.3057 18.6845 10.5453 18.893 10.7249 19.106C10.7572 19.1445 10.705 19.1678 10.6628 19.1791C10.2358 19.2882 9.44897 19.3525 9.41346 18.7136C9.40974 18.6489 9.24449 18.5956 9.13798 18.5988C8.82179 18.6086 8.8268 19.0112 8.86287 18.9837C8.93183 18.9308 9.14393 18.9499 9.11827 19.1111C9.09448 19.2625 8.79948 19.0321 8.682 19.1837C8.58348 19.3102 8.58664 19.5181 8.65654 19.6583C8.64241 19.607 8.70189 19.5689 8.73405 19.5642C9.06195 19.509 9.08054 19.623 8.98313 19.9406C8.9757 19.9646 9.07998 20.1657 9.14913 20.1836C9.14393 20.1813 9.14486 20.1378 9.15434 20.123C9.16363 20.1074 9.17943 20.0957 9.19616 20.0899C9.23167 20.0786 9.26828 20.0804 9.30434 20.071C9.32145 20.066 9.33427 20.055 9.35044 20.0454C9.3761 20.0289 9.39357 20.0065 9.41197 19.9833C9.48856 19.8869 9.55585 19.7643 9.68429 19.752C9.74359 19.7457 9.78133 19.7726 9.83245 19.8057" fill="#C41B31"/>
<path d="M13.2275 21.2899C13.527 20.9919 13.7439 20.5947 14.0644 20.3042C13.713 20.0973 13.2771 19.8813 13.231 19.4166C13.2275 19.3853 13.2799 19.35 13.2922 19.3563C13.7807 19.6307 14.44 19.6521 14.7927 19.153C15.0769 18.7492 15.2003 18.0947 15.7554 18.0566C15.5706 17.7018 15.7782 17.2922 16.0816 17.1052C15.9792 17.0668 15.8476 16.9825 15.7325 17.0043C15.5925 17.0279 15.5323 17.2179 15.3726 17.2469C15.6238 16.4009 15.1384 15.2189 14.206 15.2395C14.0315 15.2432 13.8051 15.3838 13.7478 15.575C13.6941 15.7552 13.6664 15.9819 13.7961 16.1362C14.1014 16.5015 14.3216 16.9002 14.2255 17.382C14.443 17.1946 14.6436 16.918 14.6361 16.6236C14.6348 16.5502 14.7683 16.6028 14.7891 16.5723C15.0438 16.1991 14.6274 15.9678 14.406 15.733C14.3449 15.6691 14.5006 15.5706 14.5203 15.5773C15.3198 15.8165 15.3957 16.8015 15.0531 17.4415C14.9618 17.3276 14.6233 17.3649 14.509 17.3261C14.8828 17.5148 14.786 17.5414 14.7702 17.6038C14.7421 17.7163 14.4066 17.667 14.3415 17.7498C14.2292 17.8936 14.1449 17.9563 14.1361 18.4323C14.2913 18.2654 14.4945 18.0114 14.7148 18.1245C15.1854 18.3663 14.6914 19.1801 14.2478 19.3149C13.8688 19.4292 13.5179 19.3087 13.2829 18.9783C12.9435 18.5008 13.1896 17.9226 12.9487 17.4382C12.7477 17.4876 12.7935 17.7501 12.6888 17.7033C12.3195 17.5315 12.1092 17.1365 11.8414 16.8054C11.7306 16.8457 11.6813 16.9482 11.5744 16.9426C11.416 16.9361 11.1175 16.8874 11.0538 16.9669C10.9803 17.0591 10.9262 17.7309 11.5796 17.9745C12.023 18.1397 12.3745 18.2871 12.6537 18.6331C12.4663 18.6487 12.4012 18.5579 12.2483 18.5524C12.0977 18.5466 12.0023 18.6056 11.8884 18.6639C11.7798 18.7198 11.6523 18.9336 11.6739 19.1035C11.7763 19.9168 12.7312 19.9274 13.1704 20.4419C13.2459 20.5289 13.0552 20.8827 12.8753 21.0255C12.7223 21.1483 12.3546 20.8412 12.4143 20.5819C12.4628 20.3746 11.9614 20.2355 11.7861 20.4731C11.856 20.4653 11.873 20.5116 11.8668 20.5434C11.8356 20.7349 12.073 20.7429 12.0652 20.8393C12.0548 20.9737 11.9386 20.783 11.8467 20.7657C11.6443 20.7257 11.4434 20.7962 11.3251 20.9581C11.2895 21.0068 11.2099 21.0855 11.245 21.1679C11.3997 21.0925 11.4804 21.3334 11.6244 21.2587C11.7122 21.214 11.7837 21.1363 11.8897 21.1631C11.9315 21.1745 11.975 21.2319 11.9367 21.2561C11.6553 21.4373 11.4298 21.6903 11.6337 21.979C11.6391 21.9119 11.6925 21.8643 11.7348 21.8522C11.8176 21.829 11.9261 21.8853 12.0062 21.8589C12.1373 21.8145 12.0696 21.6849 12.1196 21.5916C12.1979 21.4446 12.4641 21.202 12.6137 21.3786C12.6412 21.4108 12.6198 21.5295 12.5392 21.531C12.6221 21.5295 12.6959 21.6102 12.7661 21.595C12.7858 21.5916 12.8072 21.5916 12.8251 21.5821C12.8409 21.5745 12.8591 21.5709 12.8708 21.5581C12.9039 21.5249 12.942 21.4895 12.9476 21.4373C13.0076 21.442 13.0842 21.4487 13.1238 21.3966C13.1621 21.3451 13.21 21.3048 13.252 21.2655" fill="#C41B31"/>
<path d="M11.8652 15.4096C12.389 15.2626 12.9708 14.9903 13.0959 14.4086C13.2549 14.5045 13.3049 14.7217 13.3067 14.8542C13.3182 15.5836 12.9993 16.2134 13.1541 16.9774C13.1714 17.0635 13.329 17.3343 13.2575 17.3023C13.1705 17.2631 12.9863 17.0902 12.8846 17.1705C12.7578 17.2696 12.7662 17.4273 12.7052 17.3902C12.4752 17.2501 12.2319 17.0433 12.1196 16.7762C12.0767 16.6757 12.0947 16.4597 12.0661 16.4905C11.8916 16.6814 11.5336 16.7218 11.2679 16.7625C11.3287 16.7084 11.3828 16.4909 11.3731 16.4461C11.1646 16.3413 10.8647 16.6985 10.8699 16.6528C10.8809 16.5378 10.8934 16.5021 10.9041 16.4708C11.0599 16.0134 11.3527 15.5509 11.8652 15.4096" fill="#C41B31"/>
<path d="M7.60264 3.27594C7.62457 3.26627 7.63592 3.25103 7.63331 3.24787C7.44334 2.98168 7.2147 3.00807 7.11785 3.24545C7.05242 3.40568 7.43441 3.35419 7.60264 3.27594ZM7.97367 2.99302C8.10955 2.9893 8.20974 2.90547 8.29637 2.81364C8.28949 2.89022 8.40158 2.99841 8.36031 3.08001C8.30845 3.18225 8.17721 3.24341 8.15175 3.33858C8.09765 3.53302 8.25436 3.72299 8.13985 3.91613C7.80396 4.48475 7.06989 4.29645 6.56856 4.42285C6.60351 4.36095 6.5602 4.27005 6.52246 4.2444C6.74497 4.27321 7.04089 4.22432 7.10056 4.05647C7.1738 3.84939 7.21024 3.69641 7.11302 3.52521C6.9526 3.24303 6.61875 3.37501 6.36799 3.47297C6.32839 3.29787 6.49253 3.19154 6.58715 3.16701C6.85259 3.0973 7.09369 2.98242 7.34129 2.89022C7.55692 2.80918 7.75284 2.99841 7.97367 2.99302" fill="#C41B31"/>
<path d="M17.328 3.17465C17.349 3.16257 17.3112 3.19101 17.3289 3.17335C17.1213 3.06944 16.8514 2.93337 16.7562 3.21053C16.6868 3.4137 17.148 3.27131 17.328 3.17465V3.17465ZM17.6603 4.06467C17.5886 4.12676 17.4691 4.1249 17.3876 4.18048C17.338 4.21505 17.2932 4.25149 17.2417 4.28272C17.2175 4.29759 17.1454 4.32974 17.119 4.33644C17.046 4.35484 17.0618 4.34647 16.9945 4.35484C16.9541 4.36097 16.9352 4.36283 16.8948 4.36283C16.8547 4.36283 16.7307 4.36636 16.6911 4.36562C16.5958 4.36376 16.5796 4.3699 16.484 4.35484C16.429 4.34647 16.3768 4.3316 16.3249 4.31395C16.2902 4.30261 16.2532 4.2961 16.2166 4.29517C16.221 4.25688 16.2253 4.21543 16.2558 4.19033C16.2954 4.15613 16.3032 4.18698 16.3614 4.18159C16.3638 4.18122 16.4435 4.18829 16.4467 4.18829C16.4599 4.18791 16.476 4.18736 16.4902 4.18513C16.5153 4.18159 16.5363 4.17676 16.5588 4.16579C16.5874 4.15222 16.6186 4.14386 16.6445 4.12323C16.6534 4.11523 16.664 4.1078 16.6733 4.09887C16.692 4.08084 16.7181 4.07174 16.7352 4.05017C16.7898 3.98381 16.8305 3.91931 16.8363 3.8338C16.8421 3.77041 16.8467 3.70498 16.835 3.64011C16.8331 3.63007 16.8315 3.6191 16.8305 3.60962C16.8266 3.55962 16.8019 3.51259 16.7774 3.46575C16.6318 3.18822 16.2825 3.4598 16.0433 3.44716C16.0433 3.39418 16.0385 3.29715 16.0654 3.26239C16.2361 3.0423 16.4998 3.15067 16.6365 3.04955C17.0971 2.70882 17.2192 2.95456 17.7005 3.08784C17.8445 3.12762 18.0514 3.03672 18.1881 2.97835C18.2215 2.96423 18.2211 3.18153 18.204 3.22577C18.1468 3.3782 17.989 3.37057 17.9336 3.50701C17.8525 3.70796 17.8399 3.98994 17.6278 4.09107" fill="#C41B31"/>
<path d="M11.8937 14.2963C11.9759 14.3264 12.22 14.1924 12.3084 14.1428C12.3298 14.1307 12.3449 14.1097 12.362 14.0922C12.3633 14.0902 12.3601 14.085 12.3568 14.0846C12.2869 14.0697 12.2235 14.0643 12.1549 14.0571C12.1036 14.0509 12.0651 14.016 12.0136 14.0058C12.0006 14.003 11.9882 14.0052 11.974 14.0099C11.9543 14.0179 11.9478 14.032 11.9315 14.0392C11.9069 14.0509 11.8716 14.0509 11.8497 14.0712C11.8268 14.0915 11.8071 14.1115 11.8004 14.1409C11.7907 14.1747 11.7987 14.224 11.8225 14.2536C11.8406 14.2768 11.8683 14.2868 11.8937 14.2963V14.2963ZM12.5265 13.9238C12.7393 13.9744 12.9715 13.9809 13.1096 13.795C13.1774 14.0833 12.9131 14.1199 12.8637 14.2612C12.7895 14.4757 12.7942 14.6902 12.5863 14.801C12.1722 15.0216 11.6541 15.2867 11.1786 15.3252C11.1825 15.2672 11.1426 15.1607 11.2186 15.1568C11.3848 15.1495 11.5147 15.0257 11.5524 14.9274C11.6043 14.79 11.545 14.4579 11.421 14.393C11.2779 14.3173 11.1522 14.4335 11.0206 14.4909C10.9652 14.3454 11.1926 14.1039 11.5483 14.1253C11.5391 14.1242 11.7251 13.9223 11.7166 13.9284C11.9489 13.7684 12.2042 13.8491 12.5265 13.9238Z" fill="#C41B31"/>
<path d="M18.9871 11.9059C18.9801 11.8362 19.1552 11.6271 19.1596 11.4737C19.1762 10.9521 19.4903 10.706 19.4994 10.1489C19.5017 10.0033 18.8996 9.86727 18.8732 9.5535C18.8609 9.39847 18.8094 9.17373 18.9652 9.17708C19.1648 9.18061 19.3609 9.14511 19.502 9.02056C20.1318 8.46625 19.6002 7.70877 19.524 7.03976C19.5074 6.8931 19.7788 6.57728 19.7708 6.47337C19.7271 5.90623 19.6221 5.38854 19.824 4.83144C19.6656 4.9729 19.6182 5.20712 19.4853 5.32646C19.4208 5.38631 19.389 5.25452 19.3935 5.23389C19.473 4.74352 19.6684 4.31394 19.8954 3.84792C20.164 3.29584 20.0294 2.8473 19.5323 2.68223C19.0767 2.53055 18.6371 2.95455 18.5877 3.39008C18.5421 3.78974 18.6665 4.26877 18.7611 4.59611C18.7882 4.69203 18.7722 4.80096 18.7923 4.88423C18.8736 4.55336 18.8828 4.20854 18.8776 3.85907C18.8763 3.77375 18.944 3.65962 19.0316 3.63434C19.3275 3.54865 19.4805 3.7626 19.4608 3.92878C19.3957 4.45223 19.2901 4.85338 19.1648 5.3733C19.0219 5.96683 19.2347 6.55572 19.2972 7.13271C19.0693 6.99905 18.8217 6.99255 18.7338 7.34722C18.686 7.53608 18.8561 7.73386 18.9085 7.90097C18.9137 7.67401 19.1278 7.36432 19.3358 7.50262C19.5909 7.67215 19.6002 8.48688 19.5439 8.59433C19.4199 8.83077 19.2161 8.99919 18.9336 8.91572C18.7743 8.86888 18.839 8.63318 18.7434 8.53336C18.2356 8.00842 18.0043 7.38031 17.961 6.65535C17.9542 6.54921 18.0096 6.27038 17.9941 6.26425C17.3301 5.99044 17.0244 6.26313 16.7487 6.65535C16.7013 6.53657 16.4479 6.37057 16.4277 6.40757C16.3014 6.64141 16.3381 7.06598 16.5266 7.22993C17.0385 7.67289 17.546 7.96957 17.8337 8.60269C17.5266 8.64303 17.2268 8.73151 17.1088 9.05291C16.9857 9.38806 17.0281 9.85426 17.382 9.99033C17.6705 10.1011 18.1661 9.97732 18.2748 9.99107C18.5812 10.0314 18.9243 10.2957 18.8763 10.5853C18.8735 10.6002 18.7447 11.277 18.4514 11.1092C18.2927 11.0185 18.3821 10.6474 18.14 10.5891C17.8142 10.5103 17.7343 10.9651 17.7755 10.9263C17.8794 10.8272 17.9516 10.991 18.1529 11.1019C17.4709 10.954 17.6828 11.5791 17.7073 11.5101C17.7424 11.4131 17.8662 11.5144 18.1107 11.4977C18.1194 11.4973 18.0575 11.5494 18.0538 11.554C18.0157 11.6172 17.9969 11.6477 17.969 11.714C17.9555 11.7449 17.9573 11.7795 17.9616 11.8118C17.9648 11.8451 17.9765 11.8747 17.9945 11.9036C17.998 11.9098 18.0043 11.9155 18.0118 11.9193C18.0148 11.9204 18.0244 11.936 18.0263 11.936C18.0412 11.9377 18.0131 11.888 18.0525 11.8847C18.0618 11.8839 18.091 11.8797 18.0984 11.8826C18.1163 11.8892 18.1397 11.901 18.1586 11.9059C18.1761 11.9109 18.1947 11.9142 18.214 11.9174C18.2607 11.9232 18.2769 11.9247 18.3178 11.9102C18.3521 11.8986 18.3863 11.891 18.4189 11.8683C18.3754 11.8986 18.4674 11.8241 18.4633 11.8325C18.5055 11.7414 18.5321 11.7678 18.5412 11.7516C18.6137 11.6135 18.6767 11.6005 18.8371 11.6202C18.8525 11.6218 18.8819 11.6538 18.8916 11.6683C18.9031 11.6858 18.936 11.7722 18.9304 11.7403C18.942 11.8046 18.9816 11.8445 18.9871 11.9059" fill="#C41B31"/>
<path d="M14.0676 5.62592C14.0261 5.5999 14.0125 5.53632 13.9841 5.51049C13.9752 5.50082 13.9677 5.49023 13.9584 5.48C13.9445 5.4655 13.9378 5.44524 13.932 5.42516C13.904 5.32795 13.9185 5.21288 14.0064 5.14819C14.0097 5.14503 14.0092 5.13983 14.0107 5.13593C14.0153 5.12682 14.0289 5.12254 14.0311 5.11511C14.0335 5.10674 14.048 5.10674 14.0434 5.09559C14.0493 5.09838 14.0499 5.09001 14.0521 5.08778C14.0698 5.06492 14.0707 5.02458 14.0367 5.01343C14.0648 5.01566 14.0936 5.01491 14.122 5.02142C14.1332 5.02365 14.1445 5.02662 14.1551 5.02793C14.2627 5.04205 14.3982 5.09094 14.4274 5.19913L14.4652 5.24225C14.5773 5.50286 14.539 6.14417 15.163 6.29808C15.4881 6.37857 15.8151 6.47914 16.1484 6.47337C16.0681 6.7983 16.069 7.21041 16.3266 7.44556C15.9521 7.24164 15.7022 7.28477 15.3768 6.97657C15.2312 6.83901 14.8925 6.65127 14.7289 6.67878C14.6616 6.69049 14.8223 6.46241 14.6722 6.41705C14.5737 6.38768 14.3109 6.39419 14.2657 6.46185C14.0499 6.78678 13.8226 6.78492 13.7463 6.85016C13.8339 6.77544 13.393 6.41594 13.9408 6.22113C13.9932 6.2018 14.0125 6.08264 13.9478 6.05253C13.8406 6.0029 13.7514 6.07688 13.6452 6.13897C13.524 6.2109 13.4963 5.94695 13.3058 6.04416C13.2662 5.48074 13.7685 5.43241 14.0676 5.78392C14.0886 5.81051 14.172 5.7789 14.1374 5.74879L14.0676 5.62592" fill="#C41B31"/>
<path d="M20.875 3.17364C20.7977 6.87481 20.722 10.4332 19.635 13.8684L11.9573 7.77338L4.24829 13.8862C3.15528 10.4436 3.07963 6.87815 3.0023 3.16862C2.99524 2.81618 2.9878 2.46263 2.97944 2.1087H20.8984C20.8901 2.46448 20.8825 2.81934 20.875 3.17364V3.17364ZM17.5345 18.3202C16.2747 20.2551 14.3423 21.8724 11.9434 23.0026C9.54064 21.8752 7.60502 20.2575 6.34248 18.3202C6.1315 17.9956 5.93483 17.6703 5.75025 17.3437L11.957 12.4235L18.1354 17.329C17.9484 17.6606 17.7494 17.991 17.5345 18.3202V18.3202ZM4.62248 14.9521L11.957 9.13852L19.2606 14.9372C19.0768 15.4157 18.8715 15.8914 18.6411 16.3648L11.9573 11.0584L5.24446 16.3816C5.01303 15.9074 4.80688 15.4309 4.62248 14.9521ZM2.61584 1.75366L2.62012 1.93545C2.63034 2.34998 2.6389 2.76339 2.64726 3.17587C2.75954 8.55428 2.86512 13.6345 6.04525 18.514C7.35705 20.5276 9.37112 22.2031 11.8689 23.3595L11.9436 23.3943L12.0183 23.3595C14.5125 22.2 16.5231 20.5244 17.8323 18.514C21.0113 13.6364 21.118 8.558 21.2299 3.18126C21.2388 2.76673 21.2475 2.35184 21.2578 1.93545L21.262 1.75366H2.61584" fill="#231F20"/>
</g>
<defs>
<clipPath id="clip0_406_138">
<rect width="24" height="24" fill="white"/>
</clipPath>
</defs>
</svg>
